<svg id="Layer_1" data-name="Layer 1" xmlns="http://www.w3.org/2000/svg" viewBox="0 0 83.57 85.08">
  <title>zoom</title>
  <g>
    <path d="M79.15,69.94l-22-22A31.11,31.11,0,1,0,45.6,58.6L67.67,80.67c2.54,2.54,3.92,3.79,5.54,4.25a4.43,4.43,0,0,0,1.2.17c2,0,3.44-1.44,4.32-2.32l3.11-2.89a4.72,4.72,0,0,0,1.73-3.35C83.6,74.4,82.11,72.91,79.15,69.94ZM74.35,80a28,28,0,0,1-3.15-2.86L49.91,55.84A31.36,31.36,0,0,0,54.12,52L75.61,73.48c1,1,2.16,2.16,2.71,2.84l-3.06,2.85A9.8,9.8,0,0,1,74.35,80ZM5,31.1A26.1,26.1,0,1,1,31.1,57.2,26.13,26.13,0,0,1,5,31.1Z"/>
    <polygon points="34.67 18.61 27.68 18.61 27.68 27.61 18.68 27.61 18.68 34.61 27.68 34.61 27.68 43.61 34.67 43.61 34.67 34.61 43.67 34.61 43.67 27.61 34.67 27.61 34.67 18.61"/>
  </g>
</svg>
